<svg xmlns="http://www.w3.org/2000/svg" version="1.1" xmlns:xlink="http://www.w3.org/1999/xlink" xmlns:svgjs="http://svgjs.dev/svgjs" width="2000" height="2242" viewBox="0 0 2000 2242"><g transform="matrix(1,0,0,1,-3.1151183800621993,0)"><svg viewBox="0 0 321 360" data-background-color="#ffffff" preserveAspectRatio="xMidYMid meet" height="2242" width="2000" xmlns="http://www.w3.org/2000/svg" xmlns:xlink="http://www.w3.org/1999/xlink"><g id="tight-bounds" transform="matrix(1,0,0,1,0.5000234999999975,0)"><svg viewBox="0 0 320 360" height="360" width="320"><g><svg></svg></g><g><svg viewBox="0 0 320 360" height="360" width="320"><g><path transform="translate(-74.99272,-51.79039) scale(4.65793,4.65793)" d="M20.6 59.9l0.8 1-0.4-1.3c-0.1-0.6-0.8 0.1-0.4 0.3M21.5 59.3c0.3 0.5 0.6 1 0.6 1.5 0 0.7 0.6 1 1.1 1.2-0.7-0.8-1.1-3-1.7-2.7M59.9 16.9c1.7 0 3.3-0.2 5.1 0.2 4.4 1.1 8.1 3.3 10.6 6.4l7 11.2c0.3 2.8 0.9 5.9 0.8 9.3 0.7 0 0.6-1 1.4-1.2-0.8 2-1.2 4.5-1.4 7.4-0.5-1.6 0-4 0.1-5.3-0.7 1.1-1.1 0.3-1.1-0.2 0.1-0.8-0.3-0.7-0.6-1-1.1-1-1.8-2.1-2.6-3.8 0.5-1.3 0.6-3.2-1-4.2-0.5-0.3-1.1-0.8-1.4-1.6-0.4-1.1-1.1-2.4-0.9-4.1 0.1-0.5-1.5 1.1-2.4 0.4-3.9-2.7-7.8-5.8-12.5-8.4-2.5 0-4.3-0.9-5.2-2-0.8-1-0.2-2.3 1-2.4 0.7 0 1.5-0.2 2.1 0.2 0.1-0.4 0.5-0.9 1-0.9M50 14.6l0.2 0.1c1 0.2 1.5 1.6 2.6 1.1 0 0.7 0.1 1.4-0.1 1.9-0.3 0.8-1.2 0.8-1.9 0.8-6.7-0.4-10.6 2.4-14.7 4.8-1.1 0.7-2.3 1.2-3.2 2.1-4.3 4-9 7.7-10.1 15.1l-0.9 8.2c-0.1 0.9-1.1 1.8-0.9 2.9l0.7 4.9c-0.7-0.7-1.1 0.2-0.9 0.6 0.1 0.3 0.5 1.3 1.1 0.4 0.8 1.5 1.6 4.4 2.7 5.7 3.4 4 7.8 7.6 11.4 11.2 0.9-0.2 1.6-0.2 1.8-0.8 0.3 0.6-0.3 1.2-0.8 1.3 1.6 1 3.4 1.9 5.8 2.1 3.1 0.2 6 0.7 8.7 1.4 1.4-0.4 2.8-0.6 4.3-0.7 0.5 0 0.8-0.8 1.4-1l0.1-1c0.6 0.9 0.5-0.3 0.1-0.9 0.7 0.6 0.9 1.1 1.2 1.5 0-0.3 0.8-1.4 0.8-0.1l0.2-1.3c0.3-0.2 0.4 1.1 0.7 0.2 0.3-0.9 0.9-0.2 1.5-0.5-0.2 0.4-0.1 1.2 0.6 0.7l0.8-0.7c0.5 1.2 1.3 0.7 1.7 0.5 4.4-2.8 8.8-6.1 13-9.4l-0.1 1.3 0.5-1.6c0.5 0.5 0.9 0.1 1.1-0.2 0.6-1 1.4-2 2.7-2.9-1.6 4.3-3.5 7.7-5.9 10.5l-1 1.2c0 0.7-0.2 1.6-1 1.7-0.4 0.1-1.2-0.2-1.8 0.4-0.3 0.4 0.7 1.2-0.1 0.6-0.7-0.5-1.4 0-2.2 0.2-0.6 0.2 0.4 0.8 0.6 1.2 0.2 0.4 0.4 0.8 0.3 1.3l-1.1-1.2c-1.3 0.7-2.1 2-3.2 3-0.5 0.4-0.3 1.1-0.3 1.7-0.7 0-1.5-0.2-1.9 0.2-0.3 0.4-0.2 1-0.2 1.6-1-0.1-1.1-1.6-2-1.3-0.9 0.2-1.9 0.3-2.7 0.8 0.6 1.2-1 0.5-0.8 0.7-1.5-0.9-2.8-1.6-4.4-1-3.4-1.1-7.6-0.6-10.7-0.2 0-0.5 0.1-1-0.1-1.1-0.2 0.5-0.8 0.3-0.7 0.3-1.9-1.3-3.8-2.1-5.8-3.2-1.8 0.2-3.5-0.7-4-1.2-1.4-1.3-3-0.6-4.3-0.9-2.8-0.7-3.8-3.6-4.1-5.6-0.2-1-1-1.4-1.3-1.3-1.3-4.2-3.3-8-4.9-11.9-0.4-1-0.3-2-0.3-3.1 0.5 0.2 1 0.1 0.9-0.6-0.5-3.3-1.7-5.8-3-8.2 0.7-3.4 0.8-7.4 2.4-10.4 1.4-2.7 4-4.1 5.8-6.4 0.6-0.8 0.6-1.9 1.2-2.6 2-2 4-4.1 6.2-5.9 1-0.8 2.2 0 3.7-0.3 0.5-1.8 2.5-3.4 4.4-2.9 0.8 0.2 2.4-1.9 2.9-2.1 0.8-0.3 0.4 0.8 0.4 1.5 1.9-1.5 4.5-2.3 6.9-3.2" fill="#000000" fill-rule="nonzero" stroke="none" stroke-width="1" stroke-linecap="butt" stroke-linejoin="miter" stroke-miterlimit="10" stroke-dasharray="" stroke-dashoffset="0" font-family="none" font-weight="none" font-size="none" text-anchor="none" style="mix-blend-mode: normal" data-fill-palette-color="tertiary"></path></g><g transform="matrix(1,0,0,1,64,110.79709231646312)"><svg viewBox="0 0 192 138.40581536707376" height="138.40581536707376" width="192"><g><svg viewBox="0 0 192 138.40581536707376" height="138.40581536707376" width="192"><g><svg viewBox="0 0 192 138.40581536707376" height="138.40581536707376" width="192"><g transform="matrix(1,0,0,1,0,82.64387202434645)"><svg viewBox="0 0 192 55.76194334272731" height="55.76194334272731" width="192"><g id="textblocktransform"><svg viewBox="0 0 192 55.76194334272731" height="55.76194334272731" width="192" id="textblock"><g><svg viewBox="0 0 192 38.2450201796641" height="38.2450201796641" width="192"><g transform="matrix(1,0,0,1,0,0)"><svg width="192" viewBox="4.69 -36.74 187.5 37.35" height="38.2450201796641" data-palette-color="#deb041"><path d="M15.36 0L4.69 0 4.69-33.84 14.58-33.84Q19.75-33.84 22.96-31.9 26.17-29.96 26.17-25.56L26.17-25.56Q26.17-23.05 24.87-21.03 23.56-19.02 21.17-18.24L21.17-18.24 21.17-18.02Q24.22-17.41 26.17-15.39 28.13-13.38 28.13-9.89L28.13-9.89Q28.13-6.59 26.51-4.39 24.9-2.2 22.02-1.1 19.14 0 15.36 0L15.36 0ZM8.69-30.59L8.69-19.36 13.79-19.36Q18.24-19.36 20.21-20.89 22.19-22.41 22.19-25.02L22.19-25.02Q22.19-28.08 20.13-29.33 18.07-30.59 14.01-30.59L14.01-30.59 8.69-30.59ZM8.69-16.28L8.69-3.17 14.72-3.17Q19.17-3.17 21.67-4.85 24.17-6.52 24.17-9.99L24.17-9.99Q24.17-13.18 21.7-14.73 19.24-16.28 14.72-16.28L14.72-16.28 8.69-16.28ZM40.28 0.61L40.28 0.61Q37.16 0.61 35.06-1.21 32.96-3.03 32.96-6.42L32.96-6.42Q32.96-10.52 36.68-12.72 40.4-14.92 48.44-15.82L48.44-15.82Q48.44-17.48 47.98-18.97 47.53-20.46 46.4-21.41 45.26-22.36 43.16-22.36L43.16-22.36Q40.94-22.36 39-21.51 37.06-20.65 35.59-19.73L35.59-19.73 34.06-22.36Q35.72-23.51 38.24-24.56 40.77-25.61 43.8-25.61L43.8-25.61Q48.36-25.61 50.38-22.8 52.39-20 52.39-15.41L52.39-15.41 52.39 0 49.09 0 48.78-3.03 48.63-3.03Q46.82-1.54 44.71-0.46 42.6 0.61 40.28 0.61ZM41.35-2.56L41.35-2.56Q43.23-2.56 44.88-3.44 46.53-4.32 48.44-5.96L48.44-5.96 48.44-13.18Q44.11-12.65 41.57-11.77 39.04-10.89 37.94-9.64 36.84-8.4 36.84-6.74L36.84-6.74Q36.84-4.52 38.16-3.54 39.48-2.56 41.35-2.56ZM66.87 0.61L66.87 0.61Q64.08 0.61 61.69-0.33 59.3-1.27 57.59-2.93L57.59-2.93 59.44-5.25Q61.03-3.93 62.82-3.2 64.62-2.47 67.01-2.47L67.01-2.47Q69.53-2.47 70.8-3.67 72.07-4.88 72.07-6.54L72.07-6.54Q72.07-7.86 71.24-8.73 70.41-9.59 69.1-10.21 67.79-10.82 66.35-11.33L66.35-11.33Q64.5-12.01 62.81-12.92 61.13-13.82 60.05-15.19 58.98-16.55 58.98-18.6L58.98-18.6Q58.98-21.53 61.2-23.57 63.42-25.61 67.48-25.61L67.48-25.61Q69.79-25.61 71.76-24.82 73.73-24.02 75.17-22.83L75.17-22.83 73.36-20.51Q72.04-21.46 70.64-21.98 69.23-22.51 67.52-22.51L67.52-22.51Q65.06-22.51 63.92-21.37 62.79-20.24 62.79-18.8L62.79-18.8Q62.79-17.02 64.3-16.11 65.82-15.21 68.09-14.36L68.09-14.36Q70.06-13.67 71.85-12.78 73.63-11.89 74.75-10.47 75.87-9.06 75.87-6.74L75.87-6.74Q75.87-3.71 73.55-1.55 71.24 0.61 66.87 0.61ZM88.35 0.61L88.35 0.61Q85.56 0.61 83.17-0.33 80.78-1.27 79.07-2.93L79.07-2.93 80.93-5.25Q82.51-3.93 84.31-3.2 86.1-2.47 88.49-2.47L88.49-2.47Q91.01-2.47 92.28-3.67 93.55-4.88 93.55-6.54L93.55-6.54Q93.55-7.86 92.72-8.73 91.89-9.59 90.58-10.21 89.27-10.82 87.83-11.33L87.83-11.33Q85.98-12.01 84.29-12.92 82.61-13.82 81.54-15.19 80.46-16.55 80.46-18.6L80.46-18.6Q80.46-21.53 82.68-23.57 84.9-25.61 88.96-25.61L88.96-25.61Q91.28-25.61 93.24-24.82 95.21-24.02 96.65-22.83L96.65-22.83 94.84-20.51Q93.52-21.46 92.12-21.98 90.72-22.51 89.01-22.51L89.01-22.51Q86.54-22.51 85.41-21.37 84.27-20.24 84.27-18.8L84.27-18.8Q84.27-17.02 85.78-16.11 87.3-15.21 89.57-14.36L89.57-14.36Q91.55-13.67 93.33-12.78 95.11-11.89 96.23-10.47 97.36-9.06 97.36-6.74L97.36-6.74Q97.36-3.71 95.04-1.55 92.72 0.61 88.35 0.61ZM109.1 0.61L109.1 0.61Q105.97 0.61 103.87-1.21 101.77-3.03 101.77-6.42L101.77-6.42Q101.77-10.52 105.5-12.72 109.22-14.92 117.25-15.82L117.25-15.82Q117.25-17.48 116.8-18.97 116.35-20.46 115.21-21.41 114.08-22.36 111.98-22.36L111.98-22.36Q109.76-22.36 107.81-21.51 105.87-20.65 104.41-19.73L104.41-19.73 102.87-22.36Q104.53-23.51 107.06-24.56 109.58-25.61 112.61-25.61L112.61-25.61Q117.18-25.61 119.19-22.8 121.21-20 121.21-15.41L121.21-15.41 121.21 0 117.91 0 117.59-3.03 117.45-3.03Q115.64-1.54 113.53-0.46 111.42 0.61 109.1 0.61ZM110.17-2.56L110.17-2.56Q112.05-2.56 113.7-3.44 115.35-4.32 117.25-5.96L117.25-5.96 117.25-13.18Q112.93-12.65 110.39-11.77 107.85-10.89 106.75-9.64 105.65-8.4 105.65-6.74L105.65-6.74Q105.65-4.52 106.97-3.54 108.29-2.56 110.17-2.56ZM136.9 0.61L136.9 0.61Q132.97 0.61 131.43-1.66 129.89-3.93 129.89-7.62L129.89-7.62 129.89-21.73 126.18-21.73 126.18-24.78 130.11-24.98 130.58-33.08 133.87-33.08 133.87-24.98 140.73-24.98 140.73-21.73 133.87-21.73 133.87-7.52Q133.87-5.2 134.73-3.91 135.58-2.61 137.78-2.61L137.78-2.61Q138.44-2.61 139.17-2.75 139.9-2.88 140.66-3.22L140.66-3.22 141.54-0.44Q140.54 0 139.34 0.31 138.15 0.61 136.9 0.61ZM150.35 0L146.4 0 146.4-36.74 150.35-36.74 150.35-26.64 150.2-21.44Q152.01-23.17 154.01-24.39 156.02-25.61 158.6-25.61L158.6-25.61Q162.51-25.61 164.34-23.13 166.17-20.65 166.17-15.87L166.17-15.87 166.17 0 162.27 0 162.27-15.36Q162.27-18.92 161.12-20.56 159.97-22.19 157.36-22.19L157.36-22.19Q155.43-22.19 153.87-21.17 152.3-20.14 150.35-18.19L150.35-18.19 150.35 0ZM180.09 0.61L180.09 0.61Q176.96 0.61 174.86-1.21 172.76-3.03 172.76-6.42L172.76-6.42Q172.76-10.52 176.48-12.72 180.21-14.92 188.24-15.82L188.24-15.82Q188.24-17.48 187.79-18.97 187.34-20.46 186.2-21.41 185.07-22.36 182.97-22.36L182.97-22.36Q180.74-22.36 178.8-21.51 176.86-20.65 175.4-19.73L175.4-19.73 173.86-22.36Q175.52-23.51 178.05-24.56 180.57-25.61 183.6-25.61L183.6-25.61Q188.17-25.61 190.18-22.8 192.19-20 192.19-15.41L192.19-15.41 192.19 0 188.9 0 188.58-3.03 188.43-3.03Q186.63-1.54 184.52-0.46 182.4 0.61 180.09 0.61ZM181.16-2.56L181.16-2.56Q183.04-2.56 184.69-3.44 186.34-4.32 188.24-5.96L188.24-5.96 188.24-13.18Q183.92-12.65 181.38-11.77 178.84-10.89 177.74-9.64 176.64-8.4 176.64-6.74L176.64-6.74Q176.64-4.52 177.96-3.54 179.28-2.56 181.16-2.56Z" opacity="1" transform="matrix(1,0,0,1,0,0)" fill="#deb041" class="wordmark-text-0" data-fill-palette-color="primary" id="text-0"></path></svg></g></svg></g><g transform="matrix(1,0,0,1,0,43.82588650436141)"><svg viewBox="0 0 192 11.936056838365896" height="11.936056838365896" width="192"><g transform="matrix(1,0,0,1,0,0)"><svg width="192" viewBox="-0.24 -31.74 659.69 41.019999999999996" height="11.936056838365896" data-palette-color="#deb041"><path d="M28.08 0L28.47 0 38.13-28.03 40.58-28.03 40.58-29.3 32.67-29.3 32.67-28.03 36.57-28.03 28.91-4.98 21.04-28.03 25-28.03 25-29.3 16.6-29.3 19.92-19.92 14.79-5.08 6.54-28.03 10.5-28.03 10.5-29.3-0.24-29.3-0.24-28.03 2.64-28.03 11.62-2.93Q12.6-0.15 13.38 0.15L13.38 0.15Q13.67 0.24 13.96 0.24L13.96 0.24 14.36 0.24 20.7-17.68 25.93-2.93Q26.81-0.44 27.34-0.15L27.34-0.15Q27.64 0 28.08 0L28.08 0ZM51.9-1.22L51.9-1.22 49.46-1.22 49.46-11.77Q49.46-16.21 52.54-18.21L52.54-18.21Q53.81-19.04 55.17-19.04L55.17-19.04Q58.15-19.04 59.32-16.26L59.32-16.26Q59.86-14.94 59.86-13.33L59.86-13.33 59.86-4.15Q59.86-1.9 58.79-1.46L58.79-1.46Q58.1-1.22 56.44-1.22L56.44-1.22 56.44 0 67.19 0Q67.19-1.07 66.45-1.17L66.45-1.17Q66.26-1.22 65.96-1.22L65.96-1.22 63.52-1.22 63.52-13.33Q63.52-18.65 60.01-20.56L60.01-20.56Q58.64-21.24 57.08-21.24L57.08-21.24Q53.46-21.24 51.02-18.6L51.02-18.6Q50-17.48 49.46-16.06L49.46-16.06 49.46-31.74 42.14-31.74 42.14-30.52 45.8-30.52 45.8-4.15Q45.8-1.9 44.53-1.46L44.53-1.46Q43.8-1.22 42.14-1.22L42.14-1.22 42.14 0 53.12 0Q53.12-1.07 52.39-1.17L52.39-1.17Q52.19-1.22 51.9-1.22ZM80.61-20.02L80.61-20.02Q84.03-20.02 85.15-17.14L85.15-17.14Q85.54-16.21 85.54-15.14L85.54-15.14Q85.54-12.7 83.2-12.16L83.2-12.16Q81.98-11.91 79.73-11.96L79.73-11.96 74.56-12.11Q74.8-17.72 78.22-19.43L78.22-19.43Q79.34-20.02 80.61-20.02ZM89.11-4.69L89.11-4.69 87.89-5.13Q86.18-1.42 82.37-0.93L82.37-0.93Q81.88-0.88 81.44-0.88L81.44-0.88Q76.31-0.88 75-6.98L75-6.98Q74.6-8.69 74.56-10.74L74.56-10.74 80.41-10.64Q86.37-10.55 88.08-11.77L88.08-11.77Q89.4-12.74 89.4-14.55L89.4-14.55Q89.4-17.87 86.03-19.82L86.03-19.82Q83.64-21.24 80.51-21.24L80.51-21.24Q74.41-21.24 71.77-16.16L71.77-16.16Q70.41-13.53 70.41-10.21L70.41-10.21Q70.41-4.15 74.75-1.22L74.75-1.22Q77.34 0.49 80.66 0.49L80.66 0.49Q85.93 0.49 88.42-3.32L88.42-3.32Q88.81-4 89.11-4.69ZM103.51-1.22L103.51-1.22 99.99-1.22 99.99-10.94Q99.99-15.38 102.73-18.07L102.73-18.07Q103.8-19.09 104.53-19.14L104.53-19.14Q105.36-19.14 106.05-17.92L106.05-17.92Q106.83-16.55 107.51-16.36L107.51-16.36Q107.81-16.26 108.1-16.26L108.1-16.26Q109.56-16.26 109.95-17.68L109.95-17.68Q110.05-17.97 110.05-18.26L110.05-18.26Q110.05-20.46 107.81-20.95L107.81-20.95Q107.32-21.04 106.88-21.04L106.88-21.04Q103.95-21.04 101.65-18.55L101.65-18.55Q100.58-17.38 99.94-15.92L99.94-15.92 99.75-20.75 92.67-20.75 92.67-19.53 96.33-19.53 96.33-4.15Q96.33-1.9 95.06-1.46L95.06-1.46Q94.33-1.22 92.67-1.22L92.67-1.22 92.67 0 104.73 0Q104.73-1.07 104-1.17L104-1.17Q103.8-1.22 103.51-1.22ZM122.45-20.02L122.45-20.02Q125.87-20.02 126.99-17.14L126.99-17.14Q127.38-16.21 127.38-15.14L127.38-15.14Q127.38-12.7 125.04-12.16L125.04-12.16Q123.82-11.91 121.57-11.96L121.57-11.96 116.4-12.11Q116.64-17.72 120.06-19.43L120.06-19.43Q121.18-20.02 122.45-20.02ZM130.95-4.69L130.95-4.69 129.73-5.13Q128.02-1.42 124.21-0.93L124.21-0.93Q123.72-0.88 123.28-0.88L123.28-0.88Q118.15-0.88 116.84-6.98L116.84-6.98Q116.45-8.69 116.4-10.74L116.4-10.74 122.26-10.64Q128.21-10.55 129.92-11.77L129.92-11.77Q131.24-12.74 131.24-14.55L131.24-14.55Q131.24-17.87 127.87-19.82L127.87-19.82Q125.48-21.24 122.35-21.24L122.35-21.24Q116.25-21.24 113.61-16.16L113.61-16.16Q112.25-13.53 112.25-10.21L112.25-10.21Q112.25-4.15 116.59-1.22L116.59-1.22Q119.18 0.49 122.5 0.49L122.5 0.49Q127.77 0.49 130.26-3.32L130.26-3.32Q130.65-4 130.95-4.69ZM159.9-29.79L159.9-29.79Q153.99-29.79 149.79-25.88L149.79-25.88Q145.25-21.63 145.25-14.7L145.25-14.7Q145.25-7.08 150.57-2.73L150.57-2.73Q154.57 0.49 159.75 0.49L159.75 0.49Q161.65 0.49 163.71-0.05L163.71-0.05Q165.95 3.76 166.98 4.83L166.98 4.83Q168.88 6.79 171.03 6.84L171.03 6.84Q174.99 6.74 177.48 1.17L177.48 1.17 176.45 0.59Q173.86 3.61 171.62 3.66L171.62 3.66Q169.61 3.66 167.12 0.59L167.12 0.59Q166.78 0.15 166-0.88L166-0.88Q171.47-3.42 173.42-9.23L173.42-9.23Q174.3-11.82 174.3-14.79L174.3-14.79Q174.3-22.61 168.83-26.81L168.83-26.81Q164.93-29.79 159.9-29.79ZM159.16-5.81L159.16-5.81Q156.38-5.76 154.23-2.69L154.23-2.69Q150.13-6.01 150.13-14.7L150.13-14.7Q150.13-26.46 157.46-28.17L157.46-28.17Q158.63-28.42 159.85-28.42L159.85-28.42Q167.71-28.42 169.13-19.19L169.13-19.19Q169.42-17.19 169.42-14.89L169.42-14.89Q169.37-5.52 164.83-2.34L164.83-2.34Q161.95-5.76 159.16-5.81ZM159.75-0.88L159.75-0.88Q157.26-0.88 155.36-1.9L155.36-1.9Q157.21-4.05 159.02-4.1L159.02-4.1Q160.97-4.05 162.83-1.37L162.83-1.37Q161.46-0.88 159.75-0.88ZM202.13-1.22L202.13-1.22 199.69-1.22 199.69-20.75 192.02-20.75 192.02-19.53 196.03-19.53 196.03-8.98Q196.03-4.59 192.95-2.54L192.95-2.54Q191.58-1.61 190.12-1.61L190.12-1.61Q186.12-1.61 185.48-5.71L185.48-5.71Q185.38-6.4 185.38-7.18L185.38-7.18 185.38-20.75 177.96-20.75 177.96-19.53 181.72-19.53 181.72-7.91Q181.77 0.44 188.7 0.49L188.7 0.49Q192.37 0.49 194.71-2.49L194.71-2.49Q195.59-3.61 196.13-4.98L196.13-4.98 196.47 0 203.35 0Q203.35-1.07 202.62-1.17L202.62-1.17Q202.42-1.22 202.13-1.22ZM223.76 0.49L223.76 0.49Q227.52 0.49 227.91-4.05L227.91-4.05Q227.96-4.35 227.96-4.59L227.96-4.59 226.69-4.64Q226.35-1.07 224.78-1.03L224.78-1.03Q223.52-1.12 223.47-3.56L223.47-3.56 223.47-13.87Q223.47-20.85 216.48-21.24L216.48-21.24Q216.04-21.24 215.61-21.24L215.61-21.24Q210.14-21.24 208.28-18.7L208.28-18.7Q207.69-17.87 207.69-17.04L207.69-17.04Q207.69-15.53 209.11-15.28L209.11-15.28Q209.36-15.23 209.6-15.23L209.6-15.23Q210.72-15.23 211.26-16.65L211.26-16.65Q211.94-18.46 212.19-18.8L212.19-18.8Q213.11-20.02 215.07-20.02L215.07-20.02Q219.66-19.73 219.8-14.99L219.8-14.99 219.8-11.91Q208.33-11.91 206.67-7.13L206.67-7.13Q206.38-6.2 206.38-5.13L206.38-5.13Q206.38-1.42 209.65-0.05L209.65-0.05Q210.97 0.49 212.43 0.49L212.43 0.49Q216 0.49 218.44-1.95L218.44-1.95Q219.32-2.88 219.76-3.91L219.76-3.91Q220.34 0.44 223.76 0.49ZM214.04-1.46L214.04-1.46Q211.06-1.46 210.38-4.44L210.38-4.44Q210.23-5.13 210.23-5.96L210.23-5.96Q210.23-9.23 213.99-10.11L213.99-10.11Q216-10.55 219.8-10.6L219.8-10.6 219.8-6.69Q219.07-3.32 216.24-1.95L216.24-1.95Q215.12-1.46 214.04-1.46ZM239.77-1.22L239.77-1.22 237.14-1.22 237.14-31.74 229.81-31.74 229.81-30.52 233.47-30.52 233.47-4.15Q233.47-1.9 232.2-1.46L232.2-1.46Q231.47-1.22 229.81-1.22L229.81-1.22 229.81 0 240.99 0Q240.99-1.07 240.26-1.17L240.26-1.17Q240.07-1.22 239.77-1.22ZM253.78-1.22L253.78-1.22 251.34-1.22 251.34-20.75 243.77-20.75 243.77-19.53 247.68-19.53 247.68-4.15Q247.68-1.9 246.17-1.42L246.17-1.42Q245.43-1.22 243.77-1.22L243.77-1.22 243.77 0 255 0Q255-1.07 254.27-1.17L254.27-1.17Q254.03-1.22 253.78-1.22ZM251.93-27.88L251.93-27.88Q251.93-29.59 250.41-30.32L250.41-30.32Q249.83-30.57 249.29-30.57L249.29-30.57Q247.58-30.57 246.85-29L246.85-29Q246.61-28.47 246.61-27.88L246.61-27.88Q246.61-26.07 248.22-25.39L248.22-25.39Q248.75-25.2 249.29-25.2L249.29-25.2Q251-25.2 251.68-26.76L251.68-26.76Q251.93-27.29 251.93-27.88ZM257.44-20.75L257.44-19.53 260.86-19.53 260.86-5.76Q261.2 0.34 266.48 0.54L266.48 0.54Q270.97 0.54 272.09-4.98L272.09-4.98Q272.09-5.03 272.09-5.08L272.09-5.08 270.77-5.32Q269.55-1.27 267.21-0.93L267.21-0.93Q264.57-1.03 264.52-4.69L264.52-4.69 264.52-19.53 272.09-19.53 272.09-20.75 264.52-20.75 264.52-26.42 260.86-25.39 260.86-20.75 257.44-20.75ZM277.36 7.76L277.36 7.76Q276.58 7.76 276.19 6.59L276.19 6.59Q275.65 5.13 275.17 4.79L275.17 4.79Q274.73 4.49 274.14 4.49L274.14 4.49Q272.58 4.49 272.33 5.86L272.33 5.86Q272.28 6.05 272.28 6.2L272.28 6.2Q272.28 8.06 274.43 8.89L274.43 8.89Q275.41 9.28 276.48 9.28L276.48 9.28Q280.34 9.28 283.17 4.54L283.17 4.54Q284.35 2.64 285.42 0L285.42 0 292.65-17.82Q293.13-19.19 293.72-19.38L293.72-19.38Q294.06-19.48 294.5-19.48L294.5-19.48Q295.48-19.48 295.62-20.02L295.62-20.02Q295.72-20.31 295.72-20.75L295.72-20.75 288.3-20.75 288.3-19.48 291.86-19.48 285.61-3.86 278.93-19.48 282.2-19.48 282.2-20.75 272.68-20.75 272.68-19.48 275.07-19.48 283.86 0Q281.12 6.45 278.73 7.47L278.73 7.47Q278.05 7.76 277.36 7.76ZM343.62-28.03L343.62-29.3 335.8-29.3 325.26-5.42 313.93-29.3 306.95-29.3 306.95-28.03 310.85-28.03 310.85-1.27 306.95-1.27 306.95 0 316.71 0Q316.71-1.07 315.93-1.22L315.93-1.22Q315.69-1.27 315.44-1.27L315.44-1.27 312.81-1.27 312.81-22.27 323.5 0.24 324.53 0.24 335.8-24.9 335.8-1.27 331.9-1.27 331.9 0 343.62 0Q343.62-1.07 342.84-1.22L342.84-1.22Q342.59-1.27 342.35-1.27L342.35-1.27 339.71-1.27 339.71-28.03 343.62-28.03ZM357.24-20.02L357.24-20.02Q360.66-20.02 361.78-17.14L361.78-17.14Q362.17-16.21 362.17-15.14L362.17-15.14Q362.17-12.7 359.83-12.16L359.83-12.16Q358.61-11.91 356.36-11.96L356.36-11.96 351.18-12.11Q351.43-17.72 354.85-19.43L354.85-19.43Q355.97-20.02 357.24-20.02ZM365.73-4.69L365.73-4.69 364.51-5.13Q362.8-1.42 359-0.93L359-0.93Q358.51-0.88 358.07-0.88L358.07-0.88Q352.94-0.88 351.62-6.98L351.62-6.98Q351.23-8.69 351.18-10.74L351.18-10.74 357.04-10.64Q363-10.55 364.71-11.77L364.71-11.77Q366.03-12.74 366.03-14.55L366.03-14.55Q366.03-17.87 362.66-19.82L362.66-19.82Q360.27-21.24 357.14-21.24L357.14-21.24Q351.04-21.24 348.4-16.16L348.4-16.16Q347.03-13.53 347.03-10.21L347.03-10.21Q347.03-4.15 351.38-1.22L351.38-1.22Q353.97 0.49 357.29 0.49L357.29 0.49Q362.56 0.49 365.05-3.32L365.05-3.32Q365.44-4 365.73-4.69ZM379.89-20.02L379.89-20.02Q383.31-20.02 384.43-17.14L384.43-17.14Q384.82-16.21 384.82-15.14L384.82-15.14Q384.82-12.7 382.48-12.16L382.48-12.16Q381.26-11.91 379.01-11.96L379.01-11.96 373.84-12.11Q374.08-17.72 377.5-19.43L377.5-19.43Q378.62-20.02 379.89-20.02ZM388.39-4.69L388.39-4.69 387.17-5.13Q385.46-1.42 381.65-0.93L381.65-0.93Q381.16-0.88 380.72-0.88L380.72-0.88Q375.59-0.88 374.28-6.98L374.28-6.98Q373.89-8.69 373.84-10.74L373.84-10.74 379.7-10.64Q385.65-10.55 387.36-11.77L387.36-11.77Q388.68-12.74 388.68-14.55L388.68-14.55Q388.68-17.87 385.31-19.82L385.31-19.82Q382.92-21.24 379.79-21.24L379.79-21.24Q373.69-21.24 371.05-16.16L371.05-16.16Q369.69-13.53 369.69-10.21L369.69-10.21Q369.69-4.15 374.03-1.22L374.03-1.22Q376.62 0.49 379.94 0.49L379.94 0.49Q385.21 0.49 387.7-3.32L387.7-3.32Q388.09-4 388.39-4.69ZM391.36-20.75L391.36-19.53 394.78-19.53 394.78-5.76Q395.12 0.34 400.4 0.54L400.4 0.54Q404.89 0.54 406.01-4.98L406.01-4.98Q406.01-5.03 406.01-5.08L406.01-5.08 404.69-5.32Q403.47-1.27 401.13-0.93L401.13-0.93Q398.49-1.03 398.44-4.69L398.44-4.69 398.44-19.53 406.01-19.53 406.01-20.75 398.44-20.75 398.44-26.42 394.78-25.39 394.78-20.75 391.36-20.75ZM415.53-0.83L415.53-0.83Q418.9-0.83 420.07-2.88L420.07-2.88Q420.51-3.61 420.51-4.49L420.51-4.49Q420.51-6.54 417.53-8.01L417.53-8.01Q416.9-8.35 415.43-8.98L415.43-8.98Q411.43-10.64 410.11-12.11L410.11-12.11Q408.7-13.72 408.7-15.87L408.7-15.87Q408.7-19.24 412.41-20.61L412.41-20.61Q414.12-21.24 416.12-21.24L416.12-21.24Q419.34-21.24 421.68-19.87L421.68-19.87Q421.68-21.29 422.37-21.48L422.37-21.48Q422.66-21.53 423-21.53L423-21.53 423-15.43 421.73-15.43Q421.63-19.92 416.75-19.97L416.75-19.97Q413.09-19.97 412.21-17.82L412.21-17.82Q411.97-17.24 411.97-16.6L411.97-16.6Q411.97-14.5 414.99-13.04L414.99-13.04Q415.68-12.7 417.14-12.11L417.14-12.11Q421.1-10.5 422.42-9.03L422.42-9.03Q423.83-7.47 423.83-5.32L423.83-5.32Q423.83-1.37 419.63-0.05L419.63-0.05Q418.02 0.49 416.12 0.49L416.12 0.49Q412.6 0.44 410.01-1.27L410.01-1.27Q410.01 0 409.38 0.2L409.38 0.2Q409.09 0.24 408.7 0.24L408.7 0.24 408.7-7.18 410.06-7.18Q410.16-0.88 415.53-0.83ZM437.25 0L449.22 0Q449.22-1.07 448.44-1.22L448.44-1.22Q448.19-1.27 447.95-1.27L447.95-1.27 445.36-1.27 445.36-28.03 449.22-28.03 449.22-29.3 437.25-29.3 437.25-28.03 441.16-28.03 441.16-1.27 437.25-1.27 437.25 0ZM462.15-1.22L462.15-1.22 459.96-1.22 459.96-11.77Q460.1-16.31 463.18-18.31L463.18-18.31Q464.5-19.14 465.87-19.14L465.87-19.14Q468.84-19.14 469.92-16.36L469.92-16.36Q470.36-15.23 470.36-13.82L470.36-13.82 470.36-4.15Q470.36-1.9 469.09-1.46L469.09-1.46Q468.36-1.22 466.7-1.22L466.7-1.22 466.7 0 477.68 0Q477.68-1.07 476.95-1.17L476.95-1.17Q476.75-1.22 476.46-1.22L476.46-1.22 474.02-1.22 474.02-13.33Q474.02-18.21 470.65-20.31L470.65-20.31Q469.09-21.24 467.28-21.24L467.28-21.24Q463.67-21.24 461.32-18.36L461.32-18.36Q460.45-17.24 459.91-15.87L459.91-15.87 459.71-20.75 452.63-20.75 452.63-19.53 456.3-19.53 456.3-4.15Q456.3-1.9 455.03-1.46L455.03-1.46Q454.29-1.22 452.63-1.22L452.63-1.22 452.63 0 463.38 0Q463.38-1.07 462.64-1.17L462.64-1.17Q462.45-1.22 462.15-1.22ZM489.89-1.22L489.89-1.22 487.69-1.22 487.69-11.77Q487.84-16.31 490.91-18.31L490.91-18.31Q492.23-19.14 493.6-19.14L493.6-19.14Q496.58-19.14 497.65-16.36L497.65-16.36Q498.09-15.23 498.09-13.82L498.09-13.82 498.09-4.15Q498.09-1.9 496.82-1.46L496.82-1.46Q496.09-1.22 494.43-1.22L494.43-1.22 494.43 0 505.41 0Q505.41-1.07 504.68-1.17L504.68-1.17Q504.49-1.22 504.19-1.22L504.19-1.22 501.75-1.22 501.75-13.33Q501.75-18.21 498.38-20.31L498.38-20.31Q496.82-21.24 495.01-21.24L495.01-21.24Q491.4-21.24 489.06-18.36L489.06-18.36Q488.18-17.24 487.64-15.87L487.64-15.87 487.45-20.75 480.36-20.75 480.36-19.53 484.03-19.53 484.03-4.15Q484.03-1.9 482.76-1.46L482.76-1.46Q482.03-1.22 480.36-1.22L480.36-1.22 480.36 0 491.11 0Q491.11-1.07 490.37-1.17L490.37-1.17Q490.18-1.22 489.89-1.22ZM512.74-10.4L512.74-10.4Q512.74-17.97 516.89-19.63L516.89-19.63Q517.96-20.02 519.13-20.02L519.13-20.02Q524.55-20.02 525.43-13.18L525.43-13.18Q525.58-12.01 525.58-10.6L525.58-10.6Q525.58-2.39 521.09-0.98L521.09-0.98Q520.21-0.73 519.28-0.73L519.28-0.73Q514.35-0.73 513.08-6.59L513.08-6.59Q512.74-8.3 512.74-10.4ZM519.28-21.24L519.28-21.24Q514.59-21.24 511.47-18.02L511.47-18.02Q508.59-15.04 508.59-10.6L508.59-10.6Q508.59-4.44 513.08-1.37L513.08-1.37Q515.81 0.49 519.13 0.49L519.13 0.49Q523.82 0.49 526.9-2.83L526.9-2.83Q529.73-5.86 529.73-10.4L529.73-10.4Q529.73-16.55 525.19-19.53L525.19-19.53Q522.5-21.24 519.28-21.24ZM537.88-19.53L541.3-19.53 541.3-20.75 531.82-20.75 531.82-19.53 534.02-19.53 539.98-3.17Q540.96-0.44 542.13 0L542.13 0Q542.71 0.24 543.59 0.24L543.59 0.24 544.23 0.24 551.11-17.82Q551.7-19.34 552.53-19.48L552.53-19.48Q552.77-19.53 552.97-19.53L552.97-19.53Q554.04-19.53 554.14-20.26L554.14-20.26Q554.19-20.51 554.19-20.75L554.19-20.75 546.67-20.75 546.67-19.53 550.33-19.53 544.13-2.88 537.88-19.53ZM573.42 0.49L573.42 0.49Q577.18 0.49 577.57-4.05L577.57-4.05Q577.62-4.35 577.62-4.59L577.62-4.59 576.35-4.64Q576.01-1.07 574.45-1.03L574.45-1.03Q573.18-1.12 573.13-3.56L573.13-3.56 573.13-13.87Q573.13-20.85 566.15-21.24L566.15-21.24Q565.71-21.24 565.27-21.24L565.27-21.24Q559.8-21.24 557.95-18.7L557.95-18.7Q557.36-17.87 557.36-17.04L557.36-17.04Q557.36-15.53 558.78-15.28L558.78-15.28Q559.02-15.23 559.26-15.23L559.26-15.23Q560.39-15.23 560.92-16.65L560.92-16.65Q561.61-18.46 561.85-18.8L561.85-18.8Q562.78-20.02 564.73-20.02L564.73-20.02Q569.32-19.73 569.47-14.99L569.47-14.99 569.47-11.91Q557.99-11.91 556.33-7.13L556.33-7.13Q556.04-6.2 556.04-5.13L556.04-5.13Q556.04-1.42 559.31-0.05L559.31-0.05Q560.63 0.49 562.1 0.49L562.1 0.49Q565.66 0.49 568.1-1.95L568.1-1.95Q568.98-2.88 569.42-3.91L569.42-3.91Q570.01 0.44 573.42 0.49ZM563.71-1.46L563.71-1.46Q560.73-1.46 560.04-4.44L560.04-4.44Q559.9-5.13 559.9-5.96L559.9-5.96Q559.9-9.23 563.66-10.11L563.66-10.11Q565.66-10.55 569.47-10.6L569.47-10.6 569.47-6.69Q568.74-3.32 565.9-1.95L565.9-1.95Q564.78-1.46 563.71-1.46ZM578.84-20.75L578.84-19.53 582.26-19.53 582.26-5.76Q582.6 0.34 587.87 0.54L587.87 0.54Q592.37 0.54 593.49-4.98L593.49-4.98Q593.49-5.03 593.49-5.08L593.49-5.08 592.17-5.32Q590.95-1.27 588.61-0.93L588.61-0.93Q585.97-1.03 585.92-4.69L585.92-4.69 585.92-19.53 593.49-19.53 593.49-20.75 585.92-20.75 585.92-26.42 582.26-25.39 582.26-20.75 578.84-20.75ZM605.21-1.22L605.21-1.22 602.76-1.22 602.76-20.75 595.2-20.75 595.2-19.53 599.1-19.53 599.1-4.15Q599.1-1.9 597.59-1.42L597.59-1.42Q596.86-1.22 595.2-1.22L595.2-1.22 595.2 0 606.43 0Q606.43-1.07 605.69-1.17L605.69-1.17Q605.45-1.22 605.21-1.22ZM603.35-27.88L603.35-27.88Q603.35-29.59 601.84-30.32L601.84-30.32Q601.25-30.57 600.71-30.57L600.71-30.57Q599-30.57 598.27-29L598.27-29Q598.03-28.47 598.03-27.88L598.03-27.88Q598.03-26.07 599.64-25.39L599.64-25.39Q600.18-25.2 600.71-25.2L600.71-25.2Q602.42-25.2 603.11-26.76L603.11-26.76Q603.35-27.29 603.35-27.88ZM613.99-10.4L613.99-10.4Q613.99-17.97 618.14-19.63L618.14-19.63Q619.22-20.02 620.39-20.02L620.39-20.02Q625.81-20.02 626.69-13.18L626.69-13.18Q626.83-12.01 626.83-10.6L626.83-10.6Q626.83-2.39 622.34-0.98L622.34-0.98Q621.46-0.73 620.54-0.73L620.54-0.73Q615.6-0.73 614.33-6.59L614.33-6.59Q613.99-8.3 613.99-10.4ZM620.54-21.24L620.54-21.24Q615.85-21.24 612.72-18.02L612.72-18.02Q609.84-15.04 609.84-10.6L609.84-10.6Q609.84-4.44 614.33-1.37L614.33-1.37Q617.07 0.49 620.39 0.49L620.39 0.49Q625.08 0.49 628.15-2.83L628.15-2.83Q630.98-5.86 630.98-10.4L630.98-10.4Q630.98-16.55 626.44-19.53L626.44-19.53Q623.76-21.24 620.54-21.24ZM643.92-1.22L643.92-1.22 641.72-1.22 641.72-11.77Q641.87-16.31 644.95-18.31L644.95-18.31Q646.27-19.14 647.63-19.14L647.63-19.14Q650.61-19.14 651.69-16.36L651.69-16.36Q652.12-15.23 652.12-13.82L652.12-13.82 652.12-4.15Q652.12-1.9 650.86-1.46L650.86-1.46Q650.12-1.22 648.46-1.22L648.46-1.22 648.46 0 659.45 0Q659.45-1.07 658.72-1.17L658.72-1.17Q658.52-1.22 658.23-1.22L658.23-1.22 655.79-1.22 655.79-13.33Q655.79-18.21 652.42-20.31L652.42-20.31Q650.86-21.24 649.05-21.24L649.05-21.24Q645.44-21.24 643.09-18.36L643.09-18.36Q642.21-17.24 641.68-15.87L641.68-15.87 641.48-20.75 634.4-20.75 634.4-19.53 638.06-19.53 638.06-4.15Q638.06-1.9 636.79-1.46L636.79-1.46Q636.06-1.22 634.4-1.22L634.4-1.22 634.4 0 645.14 0Q645.14-1.07 644.41-1.17L644.41-1.17Q644.21-1.22 643.92-1.22Z" opacity="1" transform="matrix(1,0,0,1,0,0)" fill="#deb041" class="slogan-text-1" data-fill-palette-color="secondary" id="text-1"></path></svg></g></svg></g></svg></g></svg></g><g transform="matrix(1,0,0,1,57.46849715017543,0)"><svg viewBox="0 0 77.06300569964914 77.06300569964914" height="77.06300569964914" width="77.06300569964914"><g><svg xmlns="http://www.w3.org/2000/svg" xmlns:xlink="http://www.w3.org/1999/xlink" version="1.1" x="0" y="0" viewBox="10.2 10.2 79.6 79.6" enable-background="new 0 0 100 100" xml:space="preserve" height="77.06300569964914" width="77.06300569964914" class="icon-icon-0" data-fill-palette-color="accent" id="icon-0"><g fill="#deb041" data-fill-palette-color="accent"><path fill="#deb041" d="M50 10.2C28 10.2 10.2 28 10.2 50S28 89.8 50 89.8 89.8 72 89.8 50 72 10.2 50 10.2M63.5 35L66.3 29.7C66.4 29.5 66.5 29.4 66.6 29.3 67.4 28.5 68.7 28.5 69.6 29.3 70.4 30.1 70.4 31.4 69.6 32.3 69.5 32.4 69.3 32.5 69.2 32.6L63.9 35.4H63.6C63.4 35.2 63.4 35.1 63.5 35M50 21.2C51.2 21.2 52.1 22.1 52.1 23.3 52.1 23.5 52.1 23.7 52 23.8L50.2 29.5C50.2 29.6 50.1 29.7 50 29.7S49.8 29.6 49.8 29.5L48 23.9C48 23.7 47.9 23.5 47.9 23.4 47.9 22.2 48.8 21.2 50 21.2M25 50.8C24.8 50.8 24.6 50.9 24.5 50.9 23.3 50.9 22.4 50 22.4 48.8S23.3 46.7 24.5 46.7C24.7 46.7 24.9 46.7 25 46.8L30.7 48.6C30.8 48.6 30.9 48.7 30.9 48.8S30.8 49 30.7 49zM36.5 62.6L33.7 67.9C33.6 68.1 33.5 68.2 33.4 68.3 32.6 69.1 31.3 69.1 30.4 68.3 29.6 67.5 29.6 66.2 30.4 65.3 30.5 65.2 30.7 65.1 30.8 65L36.1 62.2H36.4C36.6 62.4 36.6 62.5 36.5 62.6M36.5 35.3C36.4 35.4 36.3 35.4 36.2 35.3L30.9 32.5C30.7 32.4 30.6 32.3 30.5 32.2 29.7 31.4 29.7 30.1 30.5 29.2 31.3 28.4 32.6 28.4 33.5 29.2 33.6 29.3 33.7 29.5 33.8 29.6L36.6 34.9C36.6 35.1 36.6 35.2 36.5 35.3M55.2 77.6C55.2 78.3 54.7 78.8 54 78.8H46C45.3 78.8 44.8 78.3 44.8 77.6S45.3 76.4 46 76.4H54C54.6 76.4 55.2 76.9 55.2 77.6M55 75H45C44.3 75 43.8 74.5 43.8 73.8S44.3 72.6 45 72.6H55C55.7 72.6 56.2 73.1 56.2 73.8 56.2 74.4 55.7 75 55 75M55 71.2H45C44.3 71.2 43.8 70.7 43.8 70S44.3 68.8 45 68.8H55C55.7 68.8 56.2 69.3 56.2 70S55.7 71.2 55 71.2M60.5 54C60.2 54.7 59.8 55.2 59.5 55.7 57.5 59.4 56.3 62.3 56.2 63.6V67.1C56.2 67.4 55.9 67.7 55.6 67.7H44.8C44.5 67.7 44.2 67.4 44.2 67.1V63.6C44.1 62.3 42.5 59.3 40.4 55.7 40 55.2 39.7 54.7 39.4 54.1 39.4 54.1 39.4 54 39.3 54 38.5 52.5 38.1 50.7 38.1 48.9 38.1 42.4 43.3 37.2 49.8 37.2S61.5 42.4 61.5 48.9C61.7 50.7 61.3 52.4 60.5 54M69.5 68.3C68.7 69.1 67.4 69.1 66.5 68.3 66.4 68.2 66.3 68 66.2 67.9L63.4 62.6V62.3C63.5 62.2 63.6 62.2 63.7 62.3L69 65.1C69.2 65.2 69.3 65.3 69.4 65.4 70.3 66.2 70.3 67.5 69.5 68.3M75.5 50.9C75.3 50.9 75.1 50.9 75 50.8L69.3 49C69.2 49 69.1 48.9 69.1 48.8S69.2 48.6 69.3 48.6L75 46.8C75.2 46.8 75.4 46.7 75.5 46.7 76.7 46.7 77.6 47.6 77.6 48.8S76.7 50.9 75.5 50.9" data-fill-palette-color="accent"></path></g></svg></g></svg></g><g></g></svg></g></svg></g></svg></g></svg></g><defs></defs></svg><rect width="320" height="360" fill="none" stroke="none" visibility="hidden"></rect></g></svg></g></svg>